<svg xmlns="http://www.w3.org/2000/svg" xmlns:xlink="http://www.w3.org/1999/xlink" width="100" height="100" viewBox="0 0 100 100">
  <defs>
    <clipPath id="clip-path">
      <rect id="Rectangle_7" data-name="Rectangle 7" width="100" height="100" transform="translate(30 36)" fill="none"/>
    </clipPath>
  </defs>
  <g id="Group_7" data-name="Group 7" transform="translate(-30 -36)">
    <g id="Group_6" data-name="Group 6">
      <g id="Mask_Group_3" data-name="Mask Group 3" clip-path="url(#clip-path)">
        <g id="Business-Management-Operation-Smartphone-Hand" transform="translate(26.058 27.599)">
          <path id="Path_1336" data-name="Path 1336" d="M84.012,25.2h3.306V28.51H84.012Z" transform="translate(-47.669 -10.191)" fill="#1d4e89"/>
          <path id="Path_1337" data-name="Path 1337" d="M100.815,25.2h13.219V28.51H100.815Z" transform="translate(-57.859 -10.191)" fill="#26a69a"/>
          <path id="Path_1338" data-name="Path 1338" d="M108.183,176.426h-6.612a4.957,4.957,0,1,0,0,9.913h6.612a4.957,4.957,0,0,0,0-9.913Zm0,6.612h-6.612a1.653,1.653,0,0,1,0-3.306h6.612a1.653,1.653,0,1,1,0,3.306Z" transform="translate(-55.314 -101.924)" fill="#26a69a"/>
          <path id="Path_1339" data-name="Path 1339" d="M9.905,79.392h3.306V60.25l2.138,2.138,2.336-2.319-4.957-4.957a1.651,1.651,0,0,0-2.336,0L5.431,60.069,7.767,62.4l2.138-2.138Z" transform="translate(0 -28.031)" fill="#26a69a"/>
          <path id="Path_1340" data-name="Path 1340" d="M203.134,60.25V79.392h3.306V60.25l2.138,2.138,2.336-2.336L205.956,55.1a1.651,1.651,0,0,0-2.336,0l-4.957,4.957L201,62.388Z" transform="translate(-117.214 -28.031)" fill="#26a69a"/>
          <path id="Path_1341" data-name="Path 1341" d="M102.73,81.11a6.511,6.511,0,0,0-4.247,1.554,6.629,6.629,0,0,0-5.667-3.205,6.511,6.511,0,0,0-4.247,1.554,6.587,6.587,0,0,0-4.016-2.991V19.97A11.581,11.581,0,0,0,72.986,8.4H39.935A11.581,11.581,0,0,0,28.371,19.97V50.214a5,5,0,0,0-2.394,2.378L18.483,68.865a18.319,18.319,0,0,0-1.68,7.586v31.085h3.306V76.451a14.933,14.933,0,0,1,1.374-6.213l6.889-14.954V79.442a11.438,11.438,0,0,0,.71,3.949l-1.634,2.827,2.861,1.651L40.221,70.7a3.306,3.306,0,0,1,2-1.554,3.4,3.4,0,0,1,2.52.332,3.318,3.318,0,0,1,1.206,4.528L38.511,86.877a1.705,1.705,0,0,0,0,1.68l3.537,5.881a8.242,8.242,0,0,1,1.189,4.247v8.821h3.306V98.715a11.611,11.611,0,0,0-1.651-5.948L43.85,91.032H54.045a6.666,6.666,0,0,0,.66,5.041L61.846,108.4l2.861-1.651L57.565,94.422a3.306,3.306,0,0,1,3.718-4.86,3.209,3.209,0,0,1,2,1.554l3.306,5.717a1.68,1.68,0,0,0,1.869.777,1.651,1.651,0,0,0,1.222-1.6V64.585a3.306,3.306,0,1,1,6.612,0V91.023a1.653,1.653,0,1,0,3.306,0V84.432a3.306,3.306,0,1,1,6.612,0v6.612a1.653,1.653,0,0,0,3.306,0V86.088a3.306,3.306,0,1,1,6.612,0v4.957a1.653,1.653,0,0,0,3.306,0V87.738a3.306,3.306,0,1,1,6.612,0v19.8h3.306V87.722a6.612,6.612,0,0,0-6.612-6.612ZM81.248,78.018a6.566,6.566,0,0,0-1.651.676V64.58a6.612,6.612,0,0,0-13.219,0V87.713H64.7a6.751,6.751,0,0,0-2.562-1.374,6.675,6.675,0,0,0-5.041.66,7.019,7.019,0,0,0-.975.71H41.838l6.956-12.031a6.612,6.612,0,1,0-11.451-6.612l-5.67,9.83V19.97a8.263,8.263,0,0,1,8.263-8.263h33.05a8.263,8.263,0,0,1,8.263,8.263Z" transform="translate(-6.897)" fill="#1d4e89"/>
          <path id="Path_1344" data-name="Path 1344" d="M210.031,126.019h3.306v3.306h-3.306Z" transform="translate(-124.112 -71.348)" fill="#1d4e89"/>
          <path id="Path_1345" data-name="Path 1345" d="M210.031,142.821h3.306v3.306h-3.306Z" transform="translate(-124.112 -81.542)" fill="#1d4e89"/>
          <path id="Path_1346" data-name="Path 1346" d="M16.8,126.019h3.306v3.306H16.8Z" transform="translate(-6.897 -71.348)" fill="#1d4e89"/>
          <path id="Path_1347" data-name="Path 1347" d="M603.209,1074.364a1.592,1.592,0,0,0,1.592,1.592h10.014a4.906,4.906,0,0,1-4.621,3.3h-3.306a2.6,2.6,0,0,0-2.037,4.2l9.72,12.241a1.593,1.593,0,0,0,2.5-1.983l-8.968-11.291h2.1a8.1,8.1,0,0,0,7.918-6.486h2.789a1.592,1.592,0,0,0,0-3.184h-2.751a7.8,7.8,0,0,0-1.428-3.3h4.2a1.592,1.592,0,1,0,0-3.184h-16.1a1.592,1.592,0,0,0,0,3.184h5.591a4.7,4.7,0,0,1,4.486,3.3H604.822a1.592,1.592,0,0,0-1.613,1.609Z" transform="translate(-563.278 -1038.343)" fill="#26a69a"/>
        </g>
      </g>
    </g>
  </g>
</svg>
